<svg data-v-fde0c5aa="" xmlns="http://www.w3.org/2000/svg" viewBox="0 0 300 300" class="iconLeft"><!----><defs data-v-fde0c5aa=""><!----></defs><rect data-v-fde0c5aa="" fill="transparent" x="0" y="0" width="300px" height="300px" class="logo-background-square"></rect><defs data-v-fde0c5aa=""><!----></defs><g data-v-fde0c5aa="" id="368f8451-1d21-476c-bf32-c1d71c666289" fill="#3468C0" transform="matrix(3.9186459690634305,0,0,3.9186459690634305,76.84248316435311,123.23564926454374)"><path d="M0.36 6.62L0.36 1.93L2.30 1.93L2.30 5.84L4.27 5.84L4.27 1.93L5.91 1.93L5.91 7.50L5.24 7.50L5.24 7.75L5.91 7.75L5.91 11.73L4.30 11.73Q4.27 11.73 4.27 11.70L4.27 11.70L4.27 7.46L2.30 7.46L2.30 11.70Q2.30 11.73 2.27 11.73L2.27 11.73L0.64 11.73L0.64 6.62L0.36 6.62ZM5.91 7.75L5.91 7.50L6.78 7.50L6.78 7.75L5.91 7.75ZM7.38 6.80L7.38 2.00L12.17 2.00L12.17 3.60Q12.17 3.63 12.13 3.63L12.13 3.63L9.29 3.63L9.29 5.74L11.84 5.74L11.84 5.76Q11.84 5.84 11.81 6.79L11.81 6.79Q11.79 6.79 11.79 6.80L11.79 6.80L11.91 6.80L11.91 7.29L9.70 7.29L9.70 9.29L9.11 9.29L9.11 9.49L9.70 9.49L9.70 10.10L12.20 10.10L12.20 10.32L12.00 10.32L12.00 11.52L9.01 11.52L9.01 11.73L7.59 11.73L7.59 8.24L7.38 8.24L7.38 7.01L5.82 7.01L5.82 6.80L7.38 6.80ZM8.19 6.80L7.39 6.80L7.39 7.01L8.19 7.01L8.19 6.80ZM12.94 7.49L12.94 1.96L16.29 1.96Q17.97 1.96 18.46 3.14L18.46 3.14Q18.68 3.75 18.68 4.53L18.68 4.53L18.68 4.94Q18.68 6.36 18.05 7.11L18.05 7.11L17.34 7.11L17.34 7.47L18.43 7.47L18.43 9.81L17.79 9.81L17.79 10.17L18.76 10.17L18.76 11.55L16.72 11.55L16.72 9.34L15.93 9.34L15.93 7.92L14.57 7.92L14.57 10.34L14.86 10.34L14.86 11.73L12.97 11.73Q12.94 11.73 12.94 11.70L12.94 11.70L12.94 7.77L13.78 7.77L13.78 7.49L12.94 7.49ZM15.67 3.55L14.86 3.55L14.86 6.31L15.33 6.31Q16.37 6.31 16.54 6.11L16.54 6.11Q16.71 6.00 16.80 5.67L16.80 5.67L17.53 5.67L17.53 5.32L16.87 5.32L16.87 5.35Q16.82 5.67 16.79 5.67L16.79 5.67L15.85 5.67L15.85 5.32L16.84 5.32Q16.87 5.32 16.87 5.29L16.87 5.29Q16.88 4.87 16.88 4.81L16.88 4.81Q16.88 3.90 16.57 3.69L16.57 3.69Q16.32 3.55 15.67 3.55L15.67 3.55ZM19.65 6.80L19.65 2.00L24.45 2.00L24.45 3.60Q24.45 3.63 24.41 3.63L24.41 3.63L21.57 3.63L21.57 5.74L24.12 5.74L24.12 5.76Q24.12 5.84 24.09 6.79L24.09 6.79Q24.07 6.79 24.07 6.80L24.07 6.80L24.19 6.80L24.19 7.29L21.98 7.29L21.98 9.29L21.38 9.29L21.38 9.49L21.98 9.49L21.98 10.10L24.48 10.10L24.48 10.32L24.28 10.32L24.28 11.52L21.29 11.52L21.29 11.73L19.87 11.73L19.87 8.24L19.65 8.24L19.65 7.01L18.09 7.01L18.09 6.80L19.65 6.80ZM20.47 6.80L19.67 6.80L19.67 7.01L20.47 7.01L20.47 6.80ZM25.70 6.62L25.70 1.96L28.68 1.96Q30.54 1.96 31.23 3.22L31.23 3.22Q31.83 4.20 31.83 6.49L31.83 6.49L32.13 6.49L32.13 8.83L29.23 8.83L29.23 8.56L30.14 8.56L30.14 6.49L29.87 6.49L29.87 5.63Q29.87 4.19 29.23 3.79L29.23 3.79Q28.85 3.58 28.02 3.58L28.02 3.58L27.62 3.58L27.62 6.44L27.89 6.44L27.89 8.83L25.94 8.83L25.94 6.62L25.70 6.62ZM24.83 9.13L24.83 8.83L25.71 8.83L25.71 9.13L27.89 9.13L27.89 9.78L29.23 9.78L29.23 9.13L32.13 9.13L32.13 9.78L30.14 9.78L30.14 11.52L27.89 11.52L27.89 11.73L25.73 11.73Q25.70 11.73 25.70 11.70L25.70 11.70L25.70 9.13L24.83 9.13ZM27.89 9.13L27.89 8.83L29.23 8.83L29.23 9.13L27.89 9.13ZM32.13 9.13L32.13 8.83L34.05 8.83L34.05 9.13L32.13 9.13ZM32.89 1.93L32.89 1.93L34.73 1.93Q34.76 1.94 34.76 1.97L34.76 1.97L34.76 6.73Q34.76 6.76 34.73 6.76L34.73 6.76L34.51 6.76L34.51 11.70Q34.51 11.73 34.48 11.73L34.48 11.73L32.89 11.73Q32.85 11.73 32.85 11.70L32.85 11.70L32.85 6.64L32.36 6.64Q32.33 6.64 32.33 6.61L32.33 6.61L32.33 6.40Q32.33 6.36 32.36 6.36L32.36 6.36L32.85 6.36L32.85 1.97Q32.86 1.93 32.89 1.93ZM33.81 6.36L32.87 6.36L32.87 6.64L33.81 6.64L33.81 6.36ZM34.77 3.57L34.77 1.93L40.52 1.93L40.52 3.57L38.62 3.57L38.62 10.34L39.48 10.34L39.48 10.54L38.62 10.54L38.62 11.29L38.10 11.29L38.10 11.55L38.47 11.55L38.47 11.73L36.72 11.73Q36.69 11.73 36.69 11.70L36.69 11.70L36.69 3.57L34.77 3.57ZM38.60 10.34L37.94 10.34L37.94 10.54L38.60 10.54L38.60 10.34ZM40.57 1.96L40.57 1.96L42.49 1.96Q42.49 3.37 42.98 4.35L42.98 4.35Q43.51 5.64 43.71 6.39L43.71 6.39L43.71 6.41L43.72 6.41Q43.97 5.50 44.74 3.62L44.74 3.62Q44.94 2.72 44.94 1.96L44.94 1.96L46.74 1.96Q46.58 3.43 46.33 4.13L46.33 4.13L45.25 6.59L44.59 6.59L44.59 8.28L43.59 8.28L43.59 8.61L44.59 8.61L44.59 11.73L42.72 11.73Q42.69 11.73 42.69 11.70L42.69 11.70L42.69 10.17L42.39 10.17L42.39 7.46L42.95 7.46L42.95 7.21L42.34 7.21Q42.27 7.12 41.21 4.67L41.21 4.67Q40.76 3.68 40.76 3.49L40.76 3.49L41.57 3.49L41.57 3.14L40.70 3.14Q40.57 2.06 40.57 1.96ZM39.40 3.49L39.40 3.14L40.70 3.14L40.75 3.49L39.40 3.49ZM44.59 8.61L44.59 8.28L45.40 8.28L45.40 8.61L44.59 8.61Z"></path></g><defs data-v-fde0c5aa=""><!----></defs><g data-v-fde0c5aa="" id="b49186bf-a7c4-427a-a90a-2f47b9f5c585" stroke="none" fill="#3468C0" transform="matrix(0.5971995516601493,0,0,0.5971995516601493,23.915038657150482,120.00416125037283)"><path d="M65.42 35.552a4.481 4.481 0 001.015-2.822c0-2.503-2.045-4.539-4.571-4.539-2.52 0-4.572 2.036-4.572 4.539 0-.105.023-.201.029-.303-6.894-.593-17.354-1.442-21.307-1.542-.34-2.167-2.227-3.827-4.513-3.827-2.523 0-4.565 2.029-4.565 4.539 0 2.503 2.042 4.539 4.565 4.539.444 0 .853-.112 1.258-.23a4.479 4.479 0 00-1.248 3.1c0 2.513 2.046 4.542 4.565 4.542 2.526 0 4.568-2.029 4.568-4.542 0-.254-.026-.511-.069-.758l18.6 1.319c-.003.064-.02.125-.02.189 0 2.506 2.042 4.535 4.565 4.535 2.526 0 4.568-2.029 4.568-4.535.001-1.91-1.187-3.535-2.868-4.204zm-25.339 1.272a4.568 4.568 0 00-4.005-2.358c-.451 0-.88.085-1.295.208.629-.662 1.101-1.476 1.238-2.415 3.377.096 13.129.86 21.42 1.568l-.003-.013a4.547 4.547 0 002.731 3.124c-.305.378-.55.801-.721 1.264l-19.365-1.378zM63.721 89.377a4.54 4.54 0 00-4.513 4.021c-6.799.236-14.453.466-19.799.571a4.527 4.527 0 002.121-3.018c.438.139.876.276 1.36.276a4.565 4.565 0 004.357-3.188c1.4.127 3.024.277 4.562.421a4.548 4.548 0 004.479 3.687c2.522 0 4.565-2.032 4.565-4.538 0-2.507-2.043-4.543-4.565-4.543a4.538 4.538 0 00-4.511 3.997 857.843 857.843 0 00-4.323-.394c0-.013-.007-.02-.007-.029-.151.017-.303.046-.461.046 2.529 0 4.578-2.032 4.578-4.542 0-.608-.125-1.188-.345-1.719a4.553 4.553 0 004.13 2.641c2.529 0 4.574-2.032 4.574-4.538 0-2.507-2.045-4.539-4.574-4.539a4.568 4.568 0 00-4.081 2.522 371.71 371.71 0 00-6.077-1.146c.003.059.017.111.017.171a4.488 4.488 0 000 0c0-2.032-1.348-3.73-3.196-4.312l.011.003c5.201-.19 11.219-.395 15.349-.533a4.567 4.567 0 004.49 3.689c2.517 0 4.571-2.036 4.571-4.543 0-2.506-2.055-4.538-4.571-4.538-2.346 0-4.275 1.752-4.539 4.008-5.896.198-15.581.527-21.342.765-.279-1.349-1.172-2.461-2.365-3.083 1.456-.761 2.459-2.26 2.459-4.005 0-2.511-2.046-4.539-4.575-4.539-2.523 0-4.565 2.028-4.565 4.539 0 1.745 1.001 3.244 2.454 4.005-1.453.759-2.454 2.257-2.454 4.002 0 2.507 2.042 4.542 4.565 4.542a4.546 4.546 0 004.528-4.077c.872-.033 1.823-.073 2.85-.112.034-.014.072-.02.107-.032-1.701.66-2.91 2.296-2.91 4.222a4.544 4.544 0 004.555 4.539c2.1 0 3.369-1.418 4.369-3.334v.004c2 .3 3.78.698 5.836 1.097a4.47 4.47 0 00.294 2.402 4.571 4.571 0 00-4.144-2.639 4.547 4.547 0 00-4.558 4.539c0 .031.01.06.01.091-1.986.205-3.527 1.639-3.932 3.546a4.592 4.592 0 00-1.42-.247c-2.332 0-4.256 1.732-4.539 3.969a4.56 4.56 0 00-1.047-.125c-2.523 0-4.565 2.032-4.565 4.539 0 2.51 2.042 4.538 4.565 4.538a4.564 4.564 0 004.318-3.05c.517-.003 1.103-.007 1.774-.02 2.633-.036 6.288-.129 10.857-.257 3.922-.114 7.843-.244 10.792-.347a4.551 4.551 0 004.478 3.673c2.526 0 4.568-2.028 4.568-4.538.003-2.508-2.039-4.54-4.565-4.54zm-22.33-18.309zM45.443 86.4c-.068-.024-.144-.037-.211-.065.068.028.143.041.211.065zM50.879 23.605a4.523 4.523 0 002.081-3.797c0-2.51-2.052-4.539-4.575-4.539a4.553 4.553 0 00-2.718.91 4.524 4.524 0 00-2.078 3.797c0 2.506 2.046 4.542 4.572 4.542a4.529 4.529 0 002.718-.913z"></path><path d="M34.445 11.083c2.52 0 4.572-2.036 4.572-4.542 0 .168-.033.326-.05.491l21.216 1.041c-.066.31-.103.632-.103.961 0 .573.118 1.113.312 1.621-.593-.283-1.234-.464-1.933-.464a4.57 4.57 0 00-4.474 3.59c-2.948-.293-7.434-.728-9.146-.86.005.016.007.032.012.047a4.546 4.546 0 00-4.363-3.262c-2.52 0-4.565 2.029-4.565 4.539 0 2.507 2.046 4.536 4.565 4.536 2.526 0 4.568-2.029 4.568-4.536 0 .026-.006.053-.006.083 1.68.135 5.447.5 8.856.836.221 2.302 2.178 4.107 4.553 4.107 2.52 0 4.559-2.036 4.559-4.539 0-.573-.136-1.107-.326-1.614a4.548 4.548 0 001.959.455c2.527 0 4.569-2.029 4.569-4.539 0-2.506-2.042-4.539-4.569-4.539-1.67 0-3.125.889-3.922 2.217l-21.803-1.07a4.571 4.571 0 00-4.48-3.643 4.549 4.549 0 00-4.562 4.542 4.549 4.549 0 004.561 4.542zM61.626 46.755c0-2.51-2.042-4.539-4.562-4.539a4.552 4.552 0 00-4.484 3.695l-5.73-1.485A4.559 4.559 0 0042.43 41c-2.523 0-4.575 2.033-4.575 4.542 0 2.506 2.052 4.536 4.575 4.536a4.55 4.55 0 004.549-4.187l5.575 1.442c.065.501.206.974.422 1.41a4.555 4.555 0 00-3.19-1.297c-2.527 0-4.575 2.029-4.575 4.539 0 2.507 2.048 4.539 4.575 4.539 2.52 0 4.568-2.032 4.568-4.539a4.49 4.49 0 00-.481-1.989 4.565 4.565 0 003.192 1.298c2.519 0 4.561-2.036 4.561-4.539zM39.011 19.977c-2.517 0-4.562 2.036-4.562 4.542s2.045 4.539 4.562 4.539a4.574 4.574 0 004.305-3.007c2.088.223 5.14.563 8.268.917a4.543 4.543 0 004.338 3.191c2.523 0 4.562-2.036 4.562-4.539a4.548 4.548 0 00-4.562-4.542 4.545 4.545 0 00-4.559 4.472c-2.726-.31-5.661-.638-7.78-.862 0-.059.007-.112.007-.168-.001-2.508-2.05-4.543-4.579-4.543z"></path><path d="M56.734 61.083a4.564 4.564 0 004.121 2.596c2.526 0 4.574-2.032 4.574-4.539 0-2.51-2.048-4.539-4.574-4.539-2.523 0-4.565 2.029-4.565 4.539 0 .204.02.402.046.593-3.795.481-8.54 1.08-12.864 1.641 1.052-.832 1.738-2.101 1.738-3.538 0-2.51-2.043-4.542-4.565-4.542-2.523 0-4.568 2.032-4.568 4.542 0 1.853 1.123 3.443 2.727 4.147-1.006.135-1.944.26-2.789.379.026.204.062.408.062.626 0 .263-.036.514-.076.767 4.818-.659 13.273-1.736 20.733-2.672zM41.482 62.29zm1.407-.525c-.032.019-.065.035-.098.053l.098-.053zm-.659.311c-.099.038-.202.063-.305.094.103-.029.206-.057.305-.094z"></path></g><!----></svg>