<svg width="95" height="82" viewBox="0 0 95 82" fill="none" xmlns="http://www.w3.org/2000/svg">
<path d="M28.5443 78.2121C22.4099 78.2121 16.2563 78.2121 10.1218 78.2121C8.72242 78.2121 7.323 78.2121 5.92358 78.2121C5.00341 78.2121 4.02573 78.3271 3.33561 77.5603C2.54963 76.6593 2.85635 74.7998 2.85635 73.6879C2.85635 67.3809 2.85635 61.074 2.85635 54.767C2.85635 46.8689 2.85635 38.9899 2.85635 31.0918C2.85635 27.2195 2.66465 23.2896 2.85635 19.4172C2.93303 17.9986 4.0449 17.481 5.29096 17.481C6.46034 17.481 7.64889 17.481 8.81827 17.481C12.7098 17.481 16.6013 17.481 20.4737 17.481C23.0809 17.481 25.7072 17.4235 28.3143 17.481C30.423 17.5194 30.4422 19.3022 30.4422 20.855C30.4422 26.5869 30.4422 32.3187 30.4422 38.0506C30.4422 46.0637 30.4422 54.0769 30.4422 62.09C30.4422 66.7675 30.4805 71.445 30.4422 76.1225C30.423 77.2344 29.7521 78.1546 28.5443 78.2121C26.704 78.2887 26.6848 81.1643 28.5443 81.0876C31.209 80.9917 33.241 78.9597 33.3177 76.2759C33.3369 75.8541 33.3177 75.4324 33.3177 75.0107C33.3177 72.6911 33.3177 70.3523 33.3177 68.0327C33.3177 60.1346 33.3177 52.2365 33.3177 44.3576C33.3177 37.3413 33.3177 30.325 33.3177 23.2896C33.3177 22.0244 33.3561 20.74 33.3177 19.4747C33.241 16.7526 31.1515 14.663 28.4293 14.5863C27.6817 14.5672 26.9149 14.5863 26.1673 14.5863C19.2085 14.5863 12.2689 14.5863 5.31013 14.5863C2.14706 14.5863 0 16.7142 0 19.8773C0 21.756 0 23.6538 0 25.5325C0 33.0855 0 40.6577 0 48.2108C0 55.6871 0 63.1443 0 70.6207C0 72.3843 0 74.148 0 75.9117C0 77.2727 0.364233 78.5571 1.32274 79.5732C2.47295 80.7809 3.96822 81.0684 5.54017 81.0684C12.5756 81.0684 19.6111 81.0684 26.6465 81.0684C27.2791 81.0684 27.9309 81.0684 28.5635 81.0684C30.3847 81.0876 30.3847 78.2121 28.5443 78.2121Z" fill="white"/>
<path d="M47.0052 78.2121C43.9955 78.2121 40.9858 78.2121 37.9569 78.2121C36.96 78.2121 35.5031 78.4613 34.5446 78.0779C33.6244 77.7136 33.3177 76.8701 33.2985 75.9692C33.2794 71.7517 33.2985 67.5343 33.2985 63.3169C33.2985 55.6296 33.2985 47.9616 33.2985 40.2743C33.2985 32.8555 33.2985 25.4175 33.2985 17.9986C33.2985 15.564 33.2985 13.1294 33.2985 10.714C33.2985 9.79382 33.241 8.85448 33.2985 7.93431C33.4136 6.26651 34.7746 6.05564 36.1166 6.05564C37.8802 6.05564 39.6439 6.05564 41.4075 6.05564C43.0562 6.05564 44.6856 6.05564 46.3342 6.05564C47.6378 6.05564 48.8072 6.57323 48.8839 8.0685C49.0372 11.5958 48.8839 15.1615 48.8839 18.6888C48.8839 26.1651 48.8839 33.6606 48.8839 41.137C48.8839 48.7859 48.8839 56.4348 48.8839 64.0837C48.8839 68.1094 48.9222 72.1351 48.8839 76.1609C48.8839 77.2536 48.1746 78.1737 47.0052 78.2121C45.1649 78.2887 45.1457 81.1643 47.0052 81.0876C49.6699 80.9917 51.7019 78.9597 51.7786 76.2951C51.7977 75.95 51.7786 75.5858 51.7786 75.2407C51.7786 73.2853 51.7786 71.3108 51.7786 69.3555C51.7786 62.1091 51.7786 54.882 51.7786 47.6357C51.7786 39.4884 51.7786 31.3602 51.7786 23.2129C51.7786 18.3629 51.7786 13.532 51.7786 8.68195C51.7786 8.12601 51.7786 7.58925 51.6635 7.01414C51.1651 4.5412 48.903 3.18011 46.5259 3.18011C43.037 3.18011 39.5672 3.18011 36.0782 3.18011C34.1229 3.18011 32.2634 3.6402 31.1515 5.42302C30.5956 6.30485 30.4422 7.3017 30.4422 8.31771C30.4422 9.92801 30.4422 11.5191 30.4422 13.1294C30.4422 19.9923 30.4422 26.8744 30.4422 33.7373C30.4422 41.9997 30.4422 50.262 30.4422 58.5243C30.4422 63.9686 30.4422 69.4321 30.4422 74.8765C30.4422 75.3174 30.423 75.7391 30.4422 76.18C30.4997 78.2312 31.6499 80.0716 33.6244 80.8C34.8705 81.2601 36.3658 81.0876 37.6693 81.0876C39.6822 81.0876 41.7142 81.0876 43.7271 81.0876C44.8198 81.0876 45.9317 81.0876 47.0244 81.0876C48.8455 81.0876 48.8455 78.2121 47.0052 78.2121Z" fill="white"/>
<path d="M60.0601 78.2121C58.6032 78.2121 57.1271 78.2121 55.6701 78.2121C54.2899 78.2121 52.3153 78.538 51.8361 76.7935C51.606 75.9308 51.7594 74.8573 51.7594 73.9946C51.7594 68.6845 51.7594 63.3552 51.7594 58.0451C51.7594 50.3003 51.7594 42.5748 51.7594 34.83C51.7594 27.8521 51.7594 20.8933 51.7594 13.9154C51.7594 10.9057 51.606 7.83846 51.7594 4.82875C51.8553 2.81588 53.7339 2.89256 55.2292 2.89256C56.8012 2.89256 58.3731 2.83505 59.9451 2.89256C61.9579 2.95007 61.9388 4.67539 61.9388 6.13232C61.9388 10.944 61.9388 15.7749 61.9388 20.5866C61.9388 28.178 61.9388 35.7502 61.9388 43.3416C61.9388 50.5879 61.9388 57.8342 61.9388 65.0805C61.9388 68.7804 61.9771 72.461 61.9388 76.1609C61.9388 77.2727 61.2295 78.1737 60.0601 78.2121C58.2197 78.2887 58.2006 81.1643 60.0601 81.0876C62.7247 80.9917 64.7376 78.9789 64.8334 76.2951C64.8334 75.9883 64.8334 75.6816 64.8334 75.3749C64.8334 73.5729 64.8334 71.7517 64.8334 69.9497C64.8334 63.1635 64.8334 56.3581 64.8334 49.5719C64.8334 41.4821 64.8334 33.3923 64.8334 25.3025C64.8334 19.4556 64.8334 13.6087 64.8334 7.76178C64.8334 6.7841 64.8718 5.80642 64.8334 4.82875C64.7568 2.12576 62.6864 0.0937207 59.9834 0.0170401C58.4115 -0.0213002 56.8203 0.0170401 55.2292 0.0170401C53.1205 0.0170401 51.1076 0.170402 49.7657 2.08742C49.1331 3.00758 48.9031 4.06194 48.9031 5.15464C48.9031 6.5924 48.9031 8.03016 48.9031 9.46792C48.9031 15.8516 48.9031 22.2352 48.9031 28.6189C48.9031 36.7279 48.9031 44.856 48.9031 52.965C48.9031 59.2911 48.9031 65.6173 48.9031 71.9626C48.9031 73.3237 48.8839 74.6848 48.9031 76.0458C48.9031 77.3686 49.3056 78.6338 50.2258 79.6115C51.7211 81.2026 53.6956 81.1068 55.6893 81.1068C57.1462 81.1068 58.6223 81.1068 60.0793 81.1068C61.9004 81.0876 61.9004 78.2121 60.0601 78.2121Z" fill="white"/>
<path d="M75.4537 78.2121C72.8274 78.2121 70.2011 78.2121 67.5556 78.2121C66.2329 78.2121 64.891 77.9053 64.8143 76.2759C64.7951 76.065 64.8143 75.8733 64.8143 75.6624C64.8143 71.6559 64.8143 67.6493 64.8143 63.6236C64.8143 56.8182 64.8143 50.032 64.8143 43.2266C64.8143 36.8621 64.8143 30.4976 64.8143 24.1331C64.8143 22.0819 64.8143 20.0307 64.8143 17.9795C64.8143 17.1551 64.7184 16.2733 64.8334 15.4682C65.0443 13.9154 66.4821 13.8004 67.709 13.8004C69.3384 13.8004 70.9679 13.8004 72.5782 13.8004C74.361 13.8004 77.3132 13.2828 77.3515 15.9091C77.3899 19.3981 77.3515 22.887 77.3515 26.376C77.3515 32.9897 77.3515 39.6034 77.3515 46.2171C77.3515 52.8308 77.3515 59.4253 77.3515 66.039C77.3515 69.413 77.3899 72.8061 77.3515 76.18C77.3324 77.3111 76.6039 78.1737 75.4537 78.2121C73.6134 78.2887 73.5942 81.1643 75.4537 81.0876C78.0992 80.9917 80.1312 78.9789 80.2271 76.3142C80.2271 76.065 80.2271 75.7966 80.2271 75.5474C80.2271 73.918 80.2271 72.2885 80.2271 70.659C80.2271 64.4287 80.2271 58.1793 80.2271 51.949C80.2271 44.7602 80.2271 37.5522 80.2271 30.3634C80.2271 25.8009 80.2271 21.2576 80.2271 16.6951C80.2271 16.3883 80.2271 16.0816 80.2271 15.7749C80.1696 13.5895 78.751 11.615 76.5656 11.0782C75.3579 10.7907 73.9776 10.944 72.7507 10.944C71.0446 10.944 69.3384 10.944 67.6323 10.944C65.8303 10.944 64.1625 11.2699 62.9739 12.7652C62.2263 13.7045 61.9387 14.8164 61.9196 15.9858C61.9004 17.2893 61.9196 18.6121 61.9196 19.9156C61.9196 25.7817 61.9196 31.6286 61.9196 37.4947C61.9196 44.7602 61.9196 52.0256 61.9196 59.2911C61.9196 64.3521 61.9196 69.413 61.9196 74.4739C61.9196 75.9692 61.8046 77.4644 62.648 78.8063C63.7024 80.5125 65.4852 81.0876 67.3831 81.0876C68.9934 81.0876 70.6037 81.0876 72.2139 81.0876C73.2875 81.0876 74.361 81.0876 75.4345 81.0876C77.3132 81.0876 77.3132 78.2121 75.4537 78.2121Z" fill="white"/>
<path d="M89.9847 78.2121C87.9718 78.2121 85.9398 78.2121 83.9269 78.2121C82.355 78.2121 80.2846 78.3654 80.2271 76.1992C80.1504 73.6304 80.2271 71.0424 80.2271 68.4736C80.2271 58.5818 80.2271 48.6709 80.2271 38.7791C80.2271 37.2455 80.2271 35.7119 80.2271 34.1782C80.2271 33.4114 80.0929 32.4146 80.4955 31.7245C81.013 30.8235 81.914 30.766 82.8342 30.766C83.9844 30.766 85.1346 30.766 86.2848 30.766C87.3775 30.766 88.4702 30.766 89.5629 30.766C90.5598 30.766 91.4799 31.0343 91.8442 32.0695C92.0742 32.7405 91.9592 33.6415 91.9592 34.3316C91.9592 35.9036 91.9592 37.4755 91.9592 39.0666C91.9592 43.9167 91.9592 48.7859 91.9592 53.6359C91.9592 58.6777 91.9592 63.7386 91.9592 68.7804C91.9592 71.2533 92.0551 73.7646 91.9592 76.2375C91.8825 77.3302 91.1157 78.1737 89.9847 78.2121C88.1443 78.2888 88.1252 81.1643 89.9847 81.0876C92.8794 80.9726 94.7964 78.7297 94.8156 75.9117C94.8156 74.7231 94.8156 73.5346 94.8156 72.346C94.8156 67.5726 94.8156 62.7801 94.8156 58.0067C94.8156 49.6102 94.9306 41.2137 94.8156 32.8363C94.7772 29.9416 92.5726 27.8904 89.7163 27.8713C87.4159 27.8521 85.1346 27.8713 82.8342 27.8713C81.5115 27.8713 80.2846 28.063 79.1919 28.9256C78.0033 29.865 77.4091 31.2452 77.3515 32.7597C77.3324 33.6223 77.3515 34.485 77.3515 35.3285C77.3515 45.3544 77.3515 55.3804 77.3515 65.4064C77.3515 68.8379 77.3515 72.2885 77.3515 75.72C77.3515 78.0395 78.5018 80.2441 80.898 80.8959C81.8182 81.1451 82.815 81.0684 83.7735 81.0684C85.0963 81.0684 86.419 81.0684 87.7418 81.0684C88.4894 81.0684 89.237 81.0684 89.9847 81.0684C91.8442 81.0876 91.8442 78.2121 89.9847 78.2121ZM20.9146 51.163C18.4417 51.163 15.9496 51.163 13.4766 51.163C12.3072 51.163 11.0803 51.2397 10.4477 50.0128C10.1218 49.3993 10.1985 48.7092 10.1985 48.0383C10.1985 42.2872 10.1985 36.5553 10.1985 30.8043C10.1985 29.3474 9.7001 26.6252 11.0612 25.6284C11.8855 25.0149 13.1507 25.2066 14.1284 25.2066C15.6812 25.2066 17.234 25.2066 18.8059 25.2066C19.7261 25.2066 20.953 25.0149 21.8156 25.3983C22.8316 25.8584 23.0617 26.8361 23.0617 27.8329C23.0617 30.1909 23.0617 32.5296 23.0617 34.8875C23.0617 38.089 23.0617 41.2904 23.0617 44.4726C23.0617 45.6037 23.0617 46.7347 23.0617 47.8657C23.0617 48.4217 23.1384 49.1118 22.9658 49.6486C22.6783 50.5687 21.854 51.1247 20.9146 51.163C19.0743 51.2397 19.0551 54.1152 20.9146 54.0385C23.7135 53.9427 25.8605 51.8148 25.9372 48.9968C25.9564 48.4217 25.9372 47.8466 25.9372 47.2715C25.9372 44.1084 25.9372 40.9645 25.9372 37.8014C25.9372 34.7725 25.9372 31.7628 25.9372 28.7339C25.9372 27.9671 25.9756 27.2003 25.8414 26.4527C25.4196 24.0181 23.2342 22.3886 20.838 22.3311C18.0966 22.2544 15.3361 22.3119 12.5948 22.3311C10.4286 22.3503 8.49238 23.4621 7.66806 25.5325C7.30383 26.4527 7.30383 27.392 7.30383 28.3505C7.30383 34.5233 7.30383 40.6961 7.30383 46.8497C7.30383 47.5398 7.28466 48.2491 7.30383 48.9393C7.36134 51.278 8.93329 53.4251 11.2912 53.9043C12.4798 54.1344 13.7642 54.0193 14.9527 54.0193C16.6205 54.0193 18.2883 54.0193 19.9561 54.0193C20.2628 54.0193 20.5887 54.0193 20.8955 54.0193C22.7741 54.0385 22.7741 51.163 20.9146 51.163ZM9.52757 63.0868C14.2626 63.0868 18.9976 63.0868 23.7518 63.0868C25.6113 63.0868 25.6113 60.2113 23.7518 60.2113C19.0168 60.2113 14.2818 60.2113 9.52757 60.2113C7.66806 60.2113 7.66806 63.0868 9.52757 63.0868ZM9.52757 68.2053C14.2626 68.2053 18.9976 68.2053 23.7518 68.2053C25.6113 68.2053 25.6113 65.3297 23.7518 65.3297C19.0168 65.3297 14.2818 65.3297 9.52757 65.3297C7.66806 65.3297 7.66806 68.2053 9.52757 68.2053ZM9.52757 73.3237C14.2626 73.3237 18.9976 73.3237 23.7518 73.3237C25.6113 73.3237 25.6113 70.4482 23.7518 70.4482C19.0168 70.4482 14.2818 70.4482 9.52757 70.4482C7.66806 70.4482 7.66806 73.3237 9.52757 73.3237ZM36.7108 34.5041C39.6247 34.5041 42.5577 34.5041 45.4716 34.5041C47.3311 34.5041 47.3311 31.6286 45.4716 31.6286C42.5577 31.6286 39.6247 31.6286 36.7108 31.6286C34.8705 31.6286 34.8513 34.5041 36.7108 34.5041ZM36.7108 39.6226C39.6247 39.6226 42.5577 39.6226 45.4716 39.6226C47.3311 39.6226 47.3311 36.747 45.4716 36.747C42.5577 36.747 39.6247 36.747 36.7108 36.747C34.8705 36.747 34.8513 39.6226 36.7108 39.6226ZM36.7108 44.741C39.6247 44.741 42.5577 44.741 45.4716 44.741C47.3311 44.741 47.3311 41.8655 45.4716 41.8655C42.5577 41.8655 39.6247 41.8655 36.7108 41.8655C34.8705 41.8655 34.8513 44.741 36.7108 44.741ZM55.4209 6.84162C55.4209 15.6791 55.4209 24.5165 55.4209 33.3348C55.4209 34.5808 55.4209 35.8269 55.4209 37.0538C55.4209 38.9133 58.2964 38.9133 58.2964 37.0538C58.2964 28.2163 58.2964 19.3789 58.2964 10.5606C58.2964 9.31456 58.2964 8.0685 58.2964 6.84162C58.2964 5.00128 55.4209 5.00128 55.4209 6.84162ZM55.4209 43.3032C55.4209 46.0062 55.4209 48.7092 55.4209 51.4122C55.4209 53.2717 58.2964 53.2717 58.2964 51.4122C58.2964 48.7092 58.2964 46.0062 58.2964 43.3032C58.2964 41.4629 55.4209 41.4437 55.4209 43.3032ZM55.4209 60.2496C55.4209 63.8536 55.4209 67.4576 55.4209 71.0616C55.4209 72.9211 58.2964 72.9211 58.2964 71.0616C58.2964 67.4576 58.2964 63.8536 58.2964 60.2496C58.2964 58.3901 55.4209 58.3901 55.4209 60.2496ZM78.7893 19.6473C73.6517 19.6473 68.5141 19.6473 63.3765 19.6473C61.517 19.6473 61.517 22.5228 63.3765 22.5228C68.5141 22.5228 73.6517 22.5228 78.7893 22.5228C80.6488 22.5228 80.6488 19.6473 78.7893 19.6473Z" fill="white"/>
<path d="M78.7893 26.2226C73.6517 26.2226 68.5141 26.2226 63.3765 26.2226C61.517 26.2226 61.517 29.0982 63.3765 29.0982C68.5141 29.0982 73.6517 29.0982 78.7893 29.0982C80.6488 29.0982 80.6488 26.2226 78.7893 26.2226ZM68.5524 57.9684C70.2394 57.9684 71.9264 57.9684 73.6134 57.9684C75.4729 57.9684 75.4729 55.0929 73.6134 55.0929C71.9264 55.0929 70.2394 55.0929 68.5524 55.0929C66.7121 55.0929 66.7121 57.9684 68.5524 57.9684Z" fill="white"/>
</svg>
