<svg width="81" height="70" viewBox="0 0 81 70" fill="none" xmlns="http://www.w3.org/2000/svg">
<path d="M0.216543 68.8745C0.573494 69.5608 1.27367 70 2.05621 70H78.938C79.7205 70 80.4207 69.5608 80.7776 68.8745C81.1346 68.1882 81.0522 67.351 80.5992 66.7196L55.9146 33.3667C55.1321 32.3235 53.3748 32.3235 52.606 33.3667L48.7756 38.5549L37.0649 22.7431V15.098H51.9744C53.1139 15.098 54.0338 14.1784 54.0338 13.0392V2.05882C54.0338 0.919608 53.1139 0 51.9744 0H35.0055C33.866 0 32.9462 0.919608 32.9462 2.05882V22.7431L0.395018 66.7196C-0.0580352 67.3373 -0.126679 68.1745 0.216543 68.8745ZM54.2534 38.0471L74.8468 65.8824H68.9845L51.3292 42.0137L54.2534 38.0471ZM49.9151 10.9804H37.0649V4.11765H49.9151V10.9804ZM35.0055 26.8882L47.1007 43.2353L63.8637 65.8824H6.14742L35.0055 26.8882Z" fill="white"/>
</svg>
