<svg width="80" height="80" viewBox="0 0 80 80" fill="none" xmlns="http://www.w3.org/2000/svg">
<path d="M40 0C32.0888 0 24.3552 2.34596 17.7772 6.74121C11.1992 11.1365 6.07234 17.3836 3.04484 24.6927C0.0173314 32.0017 -0.774802 40.0444 0.768607 47.8036C2.31202 55.5628 6.12164 62.6902 11.7157 68.2842C17.3098 73.8783 24.4372 77.688 32.1964 79.2314C39.9556 80.7748 47.9983 79.9827 55.3073 76.9552C62.6164 73.9277 68.8635 68.8008 73.2588 62.2228C77.654 55.6448 80 47.9112 80 40C80 34.7471 78.9654 29.5457 76.9552 24.6927C74.945 19.8396 71.9986 15.4301 68.2843 11.7157C64.5699 8.00138 60.1604 5.05501 55.3073 3.04482C50.4543 1.03463 45.2529 0 40 0ZM40 72C33.671 72 27.4841 70.1232 22.2218 66.607C16.9594 63.0908 12.8579 58.0931 10.4359 52.2459C8.01387 46.3986 7.38016 39.9645 8.61489 33.7571C9.84961 27.5497 12.8973 21.8479 17.3726 17.3726C21.8479 12.8973 27.5497 9.8496 33.7571 8.61487C39.9645 7.38014 46.3986 8.01385 52.2459 10.4359C58.0931 12.8579 63.0908 16.9594 66.607 22.2217C70.1232 27.4841 72 33.671 72 40C72 48.4869 68.6286 56.6262 62.6274 62.6274C56.6263 68.6286 48.4869 72 40 72Z" fill="white"/>
<path d="M40 28C42.2091 28 44 26.2091 44 24C44 21.7909 42.2091 20 40 20C37.7908 20 36 21.7909 36 24C36 26.2091 37.7908 28 40 28Z" fill="white"/>
<path d="M40 32C38.9391 32 37.9217 32.4214 37.1716 33.1716C36.4214 33.9217 36 34.9391 36 36V56C36 57.0609 36.4214 58.0783 37.1716 58.8284C37.9217 59.5786 38.9391 60 40 60C41.0608 60 42.0783 59.5786 42.8284 58.8284C43.5786 58.0783 44 57.0609 44 56V36C44 34.9391 43.5786 33.9217 42.8284 33.1716C42.0783 32.4214 41.0608 32 40 32Z" fill="white"/>
</svg>
